<svg xmlns="http://www.w3.org/2000/svg" xmlns:xlink="http://www.w3.org/1999/xlink" width="96" height="96" viewBox="0 0 96 96">
  <defs>
    <clipPath id="clip-path">
      <rect id="Rectangle_11" data-name="Rectangle 11" width="96" height="96" transform="translate(565 307)" fill="#cd2f44" stroke="#d70a20" stroke-width="1"/>
    </clipPath>
  </defs>
  <g id="Groupe_de_masques_7" data-name="Groupe de masques 7" transform="translate(-565 -307)" clip-path="url(#clip-path)">
    <g id="fast-food-outline" transform="translate(562.255 304.681)">
      <path id="Tracé_3229" data-name="Tracé 3229" d="M63.828,82.461c0,7.007-4.093,12.686-11.1,12.686H26.562c-7.007,0-11.1-5.679-11.1-12.686M66.6,66.6c3.5,0,6.343,3.55,6.343,7.929h0c0,4.379-2.841,7.929-6.343,7.929H12.686c-3.5,0-6.343-3.55-6.343-7.929h0c0-4.379,2.841-7.929,6.343-7.929" fill="none" stroke="#d70a20" stroke-linecap="round" stroke-miterlimit="10" stroke-width="6.343"/>
      <path id="Tracé_3230" data-name="Tracé 3230" d="M68.189,66.6H35.543a1.586,1.586,0,0,0-1.12.464l-5.318,5.318a.793.793,0,0,1-1.122,0l-5.318-5.318a1.586,1.586,0,0,0-1.12-.464H11.1a4.757,4.757,0,0,1-4.757-4.757h0A4.757,4.757,0,0,1,11.1,57.088H68.189a4.757,4.757,0,0,1,4.757,4.757h0A4.757,4.757,0,0,1,68.189,66.6ZM12.686,54.71v-.044c0-10.9,8.92-16.607,19.822-16.607H46.781c10.9,0,19.822,5.748,19.822,16.651v-.044M47.772,22.2l1.475,12.68" fill="none" stroke="#d70a20" stroke-linecap="round" stroke-miterlimit="10" stroke-width="6.343"/>
      <path id="Tracé_3231" data-name="Tracé 3231" d="M50.745,95.147H78.36a6.343,6.343,0,0,0,6.325-5.869L91.777,22.2" fill="none" stroke="#d70a20" stroke-linecap="round" stroke-miterlimit="10" stroke-width="6.343"/>
      <path id="Tracé_3232" data-name="Tracé 3232" d="M72.946,22.2,76.118,9.515l9.316-3.172" fill="none" stroke="#d70a20" stroke-linecap="round" stroke-linejoin="round" stroke-width="6.343"/>
      <path id="Tracé_3233" data-name="Tracé 3233" d="M44.4,22.2H95.147" fill="none" stroke="#d70a20" stroke-linecap="round" stroke-miterlimit="10" stroke-width="6.343"/>
    </g>
  </g>
</svg>
