<svg id="packet" xmlns="http://www.w3.org/2000/svg" width="85.756" height="92.358" viewBox="0 0 85.756 92.358">
  <g id="Groupe_12" data-name="Groupe 12" transform="translate(65.419 0)">
    <path id="Tracé_3235" data-name="Tracé 3235" d="M0,0H3.287V6.574H0Z" transform="translate(0 2.324) rotate(-45)" fill="#00485b"/>
    <path id="Tracé_3236" data-name="Tracé 3236" d="M0,0H3.287V6.574H0Z" transform="translate(13.364 15.687) rotate(-45)" fill="#00485b"/>
    <path id="Tracé_3237" data-name="Tracé 3237" d="M0,0H6.574V3.287H0Z" transform="translate(12.793 4.663) rotate(-45)" fill="#00485b"/>
  </g>
  <path id="Tracé_3238" data-name="Tracé 3238" d="M58.633,90.445H30.691a6.594,6.594,0,0,1-6.575-6.575V44.98a6.472,6.472,0,0,1,1.315-3.945l8.547-11.407H75.07L66.523,41.035a6.472,6.472,0,0,0-1.315,3.945V83.87A6.594,6.594,0,0,1,58.633,90.445Z" transform="translate(-21.65 -0.553)" fill="#f3f3f1"/>
  <path id="Tracé_3239" data-name="Tracé 3239" d="M53.055,90.445H72.779a6.594,6.594,0,0,0,6.575-6.575V44.98a6.472,6.472,0,0,0-1.315-3.945L69.492,29.628,60.944,41.035a6.472,6.472,0,0,0-1.315,3.945V83.87A6.594,6.594,0,0,1,53.055,90.445Z" transform="translate(-16.071 -0.553)" fill="#f3f3f1"/>
  <path id="Tracé_3240" data-name="Tracé 3240" d="M32.384,30.931v-9.04A3.289,3.289,0,0,1,35.671,18.6H70.189a3.289,3.289,0,0,1,3.287,3.287v9.04Z" transform="translate(-20.056 -2.678)" fill="#fff"/>
  <path id="Tracé_3241" data-name="Tracé 3241" d="M45,29.628,36.58,40.154a6.568,6.568,0,0,0-1.44,4.106V54.28a3.289,3.289,0,0,0,3.287,3.287h8.219a3.289,3.289,0,0,0,3.287-3.287V44.26a6.581,6.581,0,0,1,1.44-4.106L59.8,29.628Z" transform="translate(-19.525 -0.553)" fill="#fff"/>
  <path id="Tracé_3242" data-name="Tracé 3242" d="M31.512,83.87V44.98a6.472,6.472,0,0,1,1.315-3.945l8.547-11.407h-7.4L25.431,41.035a6.472,6.472,0,0,0-1.315,3.945V83.87a6.594,6.594,0,0,0,6.575,6.575h7.4A6.594,6.594,0,0,1,31.512,83.87Z" transform="translate(-21.65 -0.553)" fill="#cd2f44"/>
  <path id="Tracé_3243" data-name="Tracé 3243" d="M67.026,83.87V44.98a6.472,6.472,0,0,1,1.315-3.945l4.849-6.473-3.7-4.934L60.944,41.035a6.472,6.472,0,0,0-1.315,3.945V83.87a6.594,6.594,0,0,1-6.575,6.575h7.4A6.594,6.594,0,0,0,67.026,83.87Z" transform="translate(-16.071 -0.553)" fill="#cd2f44"/>
  <path id="Tracé_3244" data-name="Tracé 3244" d="M43.068,18.6h-7.4a3.289,3.289,0,0,0-3.287,3.287v9.04h7.4v-9.04A3.289,3.289,0,0,1,43.068,18.6Z" transform="translate(-20.056 -2.678)" fill="#844951"/>
  <path id="Tracé_3245" data-name="Tracé 3245" d="M42.537,54.283V44.263a6.581,6.581,0,0,1,1.44-4.106L52.4,29.628H45L36.58,40.154a6.568,6.568,0,0,0-1.44,4.106V54.28a3.289,3.289,0,0,0,3.287,3.287h7.4a3.284,3.284,0,0,1-3.287-3.284Z" transform="translate(-19.525 -0.553)" fill="#fff"/>
  <path id="Tracé_3246" data-name="Tracé 3246" d="M78.756,93.308H31.089a9.048,9.048,0,0,1-9.04-9.04v-38.9a9.073,9.073,0,0,1,1.811-5.424L32.407,28.55a2.462,2.462,0,0,1,1.972-.986H75.472a2.466,2.466,0,0,1,1.972.986l8.547,11.4a9.093,9.093,0,0,1,1.8,5.421v38.9A9.048,9.048,0,0,1,78.756,93.308ZM67.083,88.377H78.756a4.115,4.115,0,0,0,4.109-4.109v-38.9a4.145,4.145,0,0,0-.822-2.466l-6.575-8.767L68.894,42.9a4.145,4.145,0,0,0-.822,2.466v38.9A8.952,8.952,0,0,1,67.083,88.377ZM35.609,32.491,27.8,42.9a4.145,4.145,0,0,0-.822,2.466v38.9a4.115,4.115,0,0,0,4.109,4.109H59.032a4.115,4.115,0,0,0,4.109-4.109v-38.9a9.073,9.073,0,0,1,1.811-5.424l5.585-7.453Z" transform="translate(-22.049 -0.95)" fill="#cd2f44"/>
  <path id="Tracé_3247" data-name="Tracé 3247" d="M76.341,31.33H71.409v-9.04a.822.822,0,0,0-.822-.822H36.07a.822.822,0,0,0-.822.822v9.04H30.317v-9.04a5.759,5.759,0,0,1,5.753-5.753H70.588a5.759,5.759,0,0,1,5.753,5.753Z" transform="translate(-20.455 -3.076)" fill="#cd2f44"/>
  <path id="Tracé_3248" data-name="Tracé 3248" d="M47.044,60.285H38.826a5.759,5.759,0,0,1-5.753-5.753V44.512a9.055,9.055,0,0,1,1.986-5.651l8.419-10.523,3.853,3.08L38.908,41.945a4.118,4.118,0,0,0-.9,2.567v10.02a.822.822,0,0,0,.822.822h8.219a.822.822,0,0,0,.822-.822V44.512a9.055,9.055,0,0,1,1.986-5.651l8.419-10.523,3.853,3.08L53.7,41.945a4.1,4.1,0,0,0-.907,2.567v10.02a5.759,5.759,0,0,1-5.753,5.753Z" transform="translate(-19.923 -0.801)" fill="#cd2f44"/>
  <path id="Tracé_3249" data-name="Tracé 3249" d="M65.457,31.006h4.931V47.443H65.457Z" transform="translate(-13.681 -0.287)" fill="#cd2f44"/>
</svg>
